<svg width="990" height="195" viewBox="0 0 990 195" fill="none" xmlns="http://www.w3.org/2000/svg">
<path d="M715.81 5.12H755.3V31.45H756.39C759.56 26.82 762.97 22.55 766.63 18.65C770.28 14.76 774.36 11.46 778.87 8.77C783.38 6.1 788.56 3.96 794.41 2.37C800.26 0.8 806.96 0 814.51 0C825.96 0 836.63 2.56 846.5 7.67C856.37 12.79 863.37 20.72 867.52 31.44C874.58 21.69 882.74 14.01 892.01 8.4C901.28 2.8 912.86 0 926.75 0C946.74 0 962.27 4.88 973.37 14.62C984.46 24.37 990.01 40.7 990.01 63.61V194.13H948.33V83.72C948.33 76.16 948.09 69.27 947.6 63.06C947.11 56.84 945.71 51.5 943.39 46.98C941.07 42.47 937.6 39 932.97 36.56C928.34 34.13 922 32.91 913.96 32.91C899.82 32.91 889.59 37.3 883.25 46.07C876.91 54.85 873.75 67.27 873.75 83.36V194.13H832.07V72.76C832.07 59.6 829.69 49.67 824.94 42.96C820.19 36.26 811.48 32.91 798.8 32.91C793.43 32.91 788.26 34.01 783.27 36.2C778.27 38.4 773.88 41.57 770.1 45.7C766.32 49.85 763.27 54.97 760.96 61.05C758.64 67.15 757.49 74.1 757.49 81.9V194.13H715.81V5.12ZM405.06 5.12H444.54V31.45H445.63C448.8 26.82 452.21 22.55 455.87 18.65C459.52 14.76 463.6 11.46 468.11 8.77C472.62 6.1 477.8 3.96 483.65 2.37C489.51 0.8 496.21 0 503.76 0C515.21 0 525.88 2.56 535.75 7.67C545.62 12.79 552.62 20.72 556.77 31.44C563.83 21.69 571.99 14.01 581.26 8.4C590.53 2.8 602.11 0 616 0C635.99 0 651.53 4.88 662.62 14.62C673.71 24.37 679.26 40.7 679.26 63.61V194.13H637.58V83.72C637.58 76.16 637.34 69.27 636.85 63.06C636.36 56.84 634.96 51.5 632.64 46.98C630.32 42.47 626.85 39 622.22 36.56C617.59 34.13 611.25 32.91 603.21 32.91C589.07 32.91 578.84 37.3 572.5 46.07C566.16 54.85 563 67.27 563 83.36V194.13H521.32V72.76C521.32 59.6 518.94 49.67 514.19 42.96C509.43 36.26 500.72 32.91 488.04 32.91C482.68 32.91 477.5 34.01 472.51 36.2C467.51 38.4 463.12 41.57 459.35 45.7C455.56 49.85 452.52 54.97 450.21 61.05C447.89 67.15 446.74 74.1 446.74 81.9V194.13H405.06V5.12ZM202.53 5.12H242.02V32.91L242.75 33.64C249.09 23.17 257.38 14.94 267.61 8.96C277.84 2.99 289.17 0 301.61 0C322.32 0 338.66 5.37 350.6 16.08C362.54 26.81 368.51 42.9 368.51 64.34V194.12H326.83V75.3C326.34 60.44 323.18 49.66 317.33 42.95C311.47 36.25 302.34 32.9 289.91 32.9C282.84 32.9 276.5 34.18 270.9 36.73C265.29 39.29 260.54 42.83 256.64 47.33C252.74 51.84 249.69 57.15 247.5 63.24C245.31 69.33 244.21 75.79 244.21 82.61V194.11H202.53V5.12ZM0 5.12H39.48V32.91L40.21 33.64C46.55 23.17 54.84 14.94 65.07 8.96C75.31 2.99 86.64 0 99.07 0C119.78 0 136.12 5.37 148.06 16.08C160 26.81 165.97 42.9 165.97 64.34V194.12H124.29V75.3C123.8 60.44 120.64 49.66 114.79 42.95C108.94 36.25 99.8 32.9 87.37 32.9C80.29 32.9 73.96 34.18 68.36 36.73C62.75 39.29 58 42.83 54.11 47.33C50.21 51.84 47.16 57.15 44.97 63.24C42.77 69.33 41.68 75.79 41.68 82.61V194.11H0L0 5.12Z" fill="#F9F8F5"/>
</svg>
